<svg xmlns="http://www.w3.org/2000/svg" xmlns:xlink="http://www.w3.org/1999/xlink" viewBox="0 0 846 319.39">
    <defs>
        <style>.cls-1{fill:#161b22;}.cls-2{fill:url(#gradient_2);}.cls-3{fill:url(#gradient_2-2);}.cls-4{fill:url(#gradient_2-3);}.cls-5{fill:url(#gradient_2-4);}.cls-6{fill:url(#gradient_2-5);}.cls-7{fill:url(#gradient_2-6);}.cls-8{fill:url(#gradient_2-7);}.cls-9{fill:url(#gradient_2-8);}.cls-10{fill:url(#gradient_30);}.cls-11{fill:url(#gradient_30-2);}.cls-12{fill:url(#gradient_30-3);}.cls-13{fill:url(#gradient_30-4);}.cls-14{fill:url(#gradient_30-5);}.cls-15{fill:url(#gradient_30-6);}.cls-16{fill:url(#gradient_42);}.cls-17{fill:url(#gradient_30-7);}</style>
        <linearGradient id="gradient_2" x1="79.06" y1="43.98" x2="766.94" y2="43.98" gradientUnits="userSpaceOnUse">
            <stop offset="0" stop-color="#005bff" />
            <stop offset="1" stop-color="#00d9d2" />
        </linearGradient>
        <linearGradient id="gradient_2-2" x1="79.06" y1="275.41" x2="766.94" y2="275.41" xlink:href="#gradient_2" />
        <linearGradient id="gradient_2-3" x1="80.64" y1="141.99" x2="173.94" y2="141.99" xlink:href="#gradient_2" />
        <linearGradient id="gradient_2-4" x1="188.91" y1="140.58" x2="278.77" y2="140.58" xlink:href="#gradient_2" />
        <linearGradient id="gradient_2-5" x1="290" y1="141.05" x2="387.97" y2="141.05" xlink:href="#gradient_2" />
        <linearGradient id="gradient_2-6" x1="562.71" y1="178.8" x2="652.57" y2="178.8" xlink:href="#gradient_2" />
        <linearGradient id="gradient_2-7" x1="653.19" y1="179.27" x2="757.4" y2="179.27" xlink:href="#gradient_2" />
        <linearGradient id="gradient_2-8" x1="419.12" y1="159.69" x2="552.08" y2="159.69" xlink:href="#gradient_2" />
        <linearGradient id="gradient_30" x1="392.61" y1="93.51" x2="423.94" y2="93.51" gradientUnits="userSpaceOnUse">
            <stop offset="0" stop-color="#00aee1" />
            <stop offset="1" stop-color="#005dfe" />
        </linearGradient>
        <linearGradient id="gradient_30-2" x1="397.4" y1="112.24" x2="426.08" y2="112.24" xlink:href="#gradient_30" />
        <linearGradient id="gradient_30-3" x1="370.97" y1="130.96" x2="394.8" y2="130.96" xlink:href="#gradient_30" />
        <linearGradient id="gradient_30-4" x1="401.04" y1="168.02" x2="424.88" y2="168.02" xlink:href="#gradient_30" />
        <linearGradient id="gradient_30-5" x1="403.12" y1="206.67" x2="426.96" y2="206.67" xlink:href="#gradient_30" />
        <linearGradient id="gradient_30-6" x1="371.49" y1="188.51" x2="387.8" y2="188.51" xlink:href="#gradient_30" />
        <linearGradient id="gradient_42" x1="418.94" y1="222.24" x2="450.68" y2="222.24" gradientUnits="userSpaceOnUse">
            <stop offset="0" stop-color="#005dfe" />
            <stop offset="0.33" stop-color="#0062fc" />
            <stop offset="0.74" stop-color="#0071f7" />
            <stop offset="1" stop-color="#007ff2" />
        </linearGradient>
        <linearGradient id="gradient_30-7" x1="392.87" y1="189.08" x2="401.94" y2="189.08" xlink:href="#gradient_30" />
    </defs>
    <g id="Camada_2" data-name="Camada 2">
        <g id="Camada_1-2" data-name="Camada 1">
            <g id="crudry">
                <rect id="background" class="cls-1" width="846" height="319.39" />
                <rect id="line_top" class="cls-2" x="79.06" y="40.76" width="687.87" height="6.43" />
                <rect id="line_bottom" class="cls-3" x="79.06" y="272.19" width="687.87" height="6.43" />
                <path id="c" class="cls-4" d="M172.22,191.44c-4.37,2.19-15.6,5-29.95,5-42.59,0-61.63-24.49-61.63-52.73,0-36.5,28.71-56.16,63.19-56.16,13.57,0,25,2.5,30.11,5.31l-6.09,22.77a60.31,60.31,0,0,0-22.93-4.37c-17.63,0-33.23,9.52-33.23,30.43,0,18.09,12.32,30.73,34,30.73,8.11,0,17-1.56,22-3.59Z" />
                <path id="r" class="cls-5" d="M188.91,89.88A261,261,0,0,1,226,87.54c17.63,0,29.33,2.5,37.44,8.27,6.71,4.83,10.92,12.48,10.92,23.09,0,14-11.39,22.93-18.72,25.27v.62c7,3,10.92,9.83,13.88,18.57,3.59,10.76,7.18,26.21,9.21,30.26h-30c-1.71-3.12-4.52-10.45-8.11-24-3.27-12.64-7.49-15.13-17.31-15.13h-5.31v39.15H188.91Zm29.17,43.84h8.74c11.54,0,18.41-4.68,18.41-12.64s-5.93-12-15.92-12c-6.55,0-9.67.31-11.23.62Z" />
                <path id="u" class="cls-6" d="M319.48,87.54v57.1c0,16.54,6.09,27.14,19.5,27.14s19.5-9.82,19.5-27.14V87.54H388v56.32c0,34.32-18.25,50.7-50.24,50.7-30.1,0-47.73-15.29-47.73-51.48V87.54Z" />
                <path id="r-2" data-name="r" class="cls-7" d="M562.71,128.1a261.15,261.15,0,0,1,37.13-2.34c17.63,0,29.33,2.5,37.44,8.27,6.71,4.84,10.92,12.48,10.92,23.09,0,14-11.39,22.93-18.72,25.27V183c7,3,10.92,9.82,13.88,18.56,3.59,10.76,7.18,26.21,9.21,30.27h-30c-1.71-3.12-4.52-10.46-8.11-24-3.27-12.64-7.49-15.13-17.31-15.13h-5.31v39.16H562.71Zm29.17,43.84h8.74c11.54,0,18.41-4.68,18.41-12.64s-5.93-12-15.92-12c-6.55,0-9.67.31-11.23.62Z" />
                <path id="y" class="cls-8" d="M689.69,231.85V188l-36.5-61.31h34.48l9.82,23.4c3.28,7.64,5.31,12.17,8,18.72h.31c2.5-6.09,4.84-11.39,7.8-18.57l9.83-23.55h34l-38.22,60.22v44.93Z" />
                <g id="d">
                    <path class="cls-9" d="M546.53,130.94a67.62,67.62,0,0,0-15.77-22.79A73.41,73.41,0,0,0,506.43,93a85.59,85.59,0,0,0-31-5.46H419.12v127.9a5.94,5.94,0,0,1,1.89-.31H432.9a6,6,0,1,1,0,11.94H421a5.68,5.68,0,0,1-1.89-.31v5.09h56.29a83.94,83.94,0,0,0,31-5.58A74.62,74.62,0,0,0,530.76,211a67.2,67.2,0,0,0,15.77-22.88,72.42,72.42,0,0,0,5.55-28.45v-.41A71.63,71.63,0,0,0,546.53,130.94ZM518.9,160.1a45.85,45.85,0,0,1-3.2,17.53,41.35,41.35,0,0,1-8.86,13.6,37.92,37.92,0,0,1-13.71,8.86,49,49,0,0,1-17.72,3.1H450.87v-87h24.54a47.55,47.55,0,0,1,17.72,3.2,39.39,39.39,0,0,1,13.71,9,40.92,40.92,0,0,1,8.86,13.8,47,47,0,0,1,3.2,17.53Z" />
                </g>
                <path id="drop" class="cls-10" d="M419.36,99.48H397.18c-2.52,0-4.57-2.67-4.57-6h0c0-3.3,2.05-6,4.57-6h22.18c2.53,0,4.58,2.67,4.58,6h0C423.94,96.81,421.89,99.48,419.36,99.48Z" />
                <rect id="drop-2" data-name="drop" class="cls-11" x="397.4" y="106.26" width="28.68" height="11.94" rx="5.17" />
                <path id="drop-3" data-name="drop" class="cls-12" d="M388.83,136.93H376.94a6,6,0,0,1-6-6h0a6,6,0,0,1,6-6h11.89a6,6,0,0,1,6,6h0A6,6,0,0,1,388.83,136.93Z" />
                <path id="drop-4" data-name="drop" class="cls-13" d="M418.91,174H407a6,6,0,0,1-6-6h0a6,6,0,0,1,6-6h11.9a6,6,0,0,1,6,6h0A6,6,0,0,1,418.91,174Z" />
                <path id="drop-5" data-name="drop" class="cls-14" d="M421,212.64h-11.9a6,6,0,0,1-6-6h0a6,6,0,0,1,6-6H421a6,6,0,0,1,6,6h0A6,6,0,0,1,421,212.64Z" />
                <path id="drop-6" data-name="drop" class="cls-15" d="M383.83,192.48h-8.37a4,4,0,0,1-4-4h0a4,4,0,0,1,4-4h8.37a4,4,0,0,1,4,4h0A4,4,0,0,1,383.83,192.48Z" />
                <rect id="drop-7" data-name="drop" class="cls-16" x="419.12" y="212.64" width="31.74" height="19.21" />
                <path id="drop-8" data-name="drop" class="cls-17" d="M401.94,189.08a4.54,4.54,0,1,1-4.54-4.54A4.53,4.53,0,0,1,401.94,189.08Z" />
            </g>
        </g>
    </g>
</svg>